<svg width="163" height="11" viewBox="0 0 163 11" fill="none" xmlns="http://www.w3.org/2000/svg">
<path d="M11.804 10H9.659L8.619 3.903L6.89 10H4.979L3.25 3.903L2.21 10H0.065L1.781 1.16H4.095L5.941 7.361L7.774 1.16H10.088L11.804 10ZM17.8111 1.16H19.7611V6.555C19.7611 8.908 18.4091 10.13 16.1081 10.13C13.8071 10.13 12.4551 8.908 12.4551 6.555V1.16H14.4051V6.269C14.4051 7.491 14.7821 8.18 16.1081 8.18C17.4471 8.18 17.8111 7.491 17.8111 6.269V1.16ZM21.1306 10V1.16H23.0806V8.232H26.2526V10H21.1306ZM29.4579 2.928V10H27.5079V2.928H24.9859V1.16H31.9799V2.928H29.4579ZM34.773 10H32.823V1.16H34.773V10ZM36.3269 10V1.16H38.2769V8.232H41.4489V10H36.3269ZM44.6372 10H42.6872V1.16H44.6372V10ZM53.1331 10H51.1831L48.1411 4.488V10H46.1911V1.16H48.1411L51.1831 6.672V1.16H53.1331V10ZM59.117 2.85C57.713 2.85 56.543 4.111 56.543 5.606C56.543 7.101 57.713 8.362 59.117 8.362C59.975 8.362 61.067 8.089 61.548 6.75H59.299V5.281H63.654V5.58C63.654 8.089 61.639 10.13 59.117 10.13C56.621 10.13 54.567 8.076 54.567 5.58C54.567 3.084 56.621 1.03 59.117 1.03C61.067 1.03 62.822 2.304 63.433 4.137H61.288C60.859 3.201 59.975 2.85 59.117 2.85ZM70.0523 1.16H72.0023V6.555C72.0023 8.908 70.6503 10.13 68.3493 10.13C66.0483 10.13 64.6963 8.908 64.6963 6.555V1.16H66.6463V6.269C66.6463 7.491 67.0233 8.18 68.3493 8.18C69.6883 8.18 70.0523 7.491 70.0523 6.269V1.16ZM78.1818 6.62L77.0638 3.474L75.9458 6.62H78.1818ZM81.4838 10H79.3908L78.7538 8.219H75.3868L74.7498 10H72.6568L76.2448 1.16H77.8958L81.4838 10ZM82.3347 10V1.16H84.2847V8.232H87.4567V10H82.3347ZM91.425 1.979V1.134H93.57H94.48H96.625V1.979H94.48V9.974H93.57V1.979H91.425ZM98.7756 5.632H100.83C101.337 5.632 101.753 5.463 102.091 5.112C102.429 4.761 102.598 4.332 102.598 3.812C102.598 3.292 102.429 2.876 102.117 2.538C101.792 2.2 101.363 2.031 100.83 2.031H98.7756V5.632ZM103.508 3.825C103.508 4.605 103.222 5.255 102.676 5.762C102.195 6.217 101.61 6.464 100.921 6.503L103.651 10H102.429L99.8286 6.503H98.7756V10H97.8656V1.16H100.7C101.48 1.16 102.143 1.42 102.676 1.914C103.222 2.421 103.508 3.071 103.508 3.825ZM106.367 6.75H109.578L107.979 2.681L106.367 6.75ZM111.853 10H110.865L109.916 7.595H106.029L105.08 10H104.092L107.979 0.548999L111.853 10ZM113.87 3.487V10H112.96V0.600999L117.926 7.66V1.16H118.836V10.546L113.87 3.487ZM123.225 5.84C121.431 5.424 120.521 4.644 120.521 3.513C120.521 2.681 120.82 2.07 121.392 1.654C121.977 1.238 122.666 1.03 123.446 1.03C125.162 1.03 126.189 1.68 126.514 2.954H125.526C125.344 2.2 124.655 1.81 123.446 1.81C122.588 1.81 121.99 2.07 121.652 2.577C121.522 2.759 121.47 3.006 121.47 3.292C121.457 3.838 121.756 4.254 122.354 4.553C122.627 4.696 123.212 4.891 124.122 5.125C125.019 5.359 125.669 5.619 126.072 5.905C126.644 6.295 126.93 6.854 126.93 7.582C126.93 8.466 126.566 9.142 125.864 9.597C125.279 9.987 124.551 10.169 123.68 10.169C121.73 10.169 120.599 9.428 120.287 7.933H121.353C121.522 8.869 122.302 9.337 123.68 9.337C124.668 9.337 125.37 9.064 125.76 8.518C125.916 8.31 125.994 8.011 125.994 7.647C125.994 7.283 125.851 6.984 125.565 6.75C125.149 6.412 124.369 6.113 123.225 5.84ZM129.156 9.09H132.315V10H129.156H128.701H128.246V1.16H129.156V9.09ZM134.982 6.75H138.193L136.594 2.681L134.982 6.75ZM140.468 10H139.48L138.531 7.595H134.644L133.695 10H132.707L136.594 0.548999L140.468 10ZM139.667 1.979V1.134H141.812H142.722H144.867V1.979H142.722V9.974H141.812V1.979H139.667ZM153.895 5.554C153.895 4.566 153.531 3.708 152.829 2.993C152.114 2.291 151.256 1.927 150.255 1.927C149.254 1.927 148.396 2.291 147.681 2.993C146.979 3.708 146.615 4.566 146.615 5.554C146.615 6.568 146.979 7.426 147.681 8.128C148.396 8.843 149.254 9.194 150.255 9.194C151.256 9.194 152.114 8.843 152.829 8.128C153.531 7.426 153.895 6.568 153.895 5.554ZM154.805 5.554C154.805 6.178 154.675 6.776 154.441 7.322C154.207 7.881 153.882 8.362 153.466 8.778C153.05 9.194 152.569 9.519 152.01 9.753C151.464 9.987 150.866 10.117 150.242 10.117C149.618 10.117 149.033 9.987 148.487 9.753C147.941 9.519 147.46 9.194 147.044 8.778C146.628 8.362 146.303 7.881 146.069 7.322C145.835 6.776 145.705 6.178 145.705 5.554C145.705 4.93 145.835 4.345 146.069 3.786C146.303 3.24 146.628 2.759 147.044 2.343C147.46 1.94 147.941 1.615 148.487 1.381C149.033 1.147 149.618 1.03 150.242 1.03C150.866 1.03 151.464 1.147 152.01 1.381C152.569 1.615 153.05 1.94 153.466 2.343C153.882 2.759 154.207 3.24 154.441 3.786C154.675 4.345 154.805 4.93 154.805 5.554ZM157.276 5.632H159.33C159.837 5.632 160.253 5.463 160.591 5.112C160.929 4.761 161.098 4.332 161.098 3.812C161.098 3.292 160.929 2.876 160.617 2.538C160.292 2.2 159.863 2.031 159.33 2.031H157.276V5.632ZM162.008 3.825C162.008 4.605 161.722 5.255 161.176 5.762C160.695 6.217 160.11 6.464 159.421 6.503L162.151 10H160.929L158.329 6.503H157.276V10H156.366V1.16H159.2C159.98 1.16 160.643 1.42 161.176 1.914C161.722 2.421 162.008 3.071 162.008 3.825Z" fill="white"/>
</svg>
