<svg width="28" height="26" viewBox="0 0 28 26" fill="none" xmlns="http://www.w3.org/2000/svg">
<path d="M25.768 6.072C26.944 8.18133 27.532 10.4773 27.532 12.96C27.532 15.4427 26.944 17.748 25.768 19.876C24.592 21.9853 22.9493 23.7027 20.84 25.028H20C22.1093 23.7027 23.7427 21.9853 24.9 19.876C26.076 17.748 26.664 15.4427 26.664 12.96C26.664 10.496 26.076 8.2 24.9 6.072C23.724 3.92533 22.1 2.18933 20.028 0.863999H20.868C22.9587 2.208 24.592 3.944 25.768 6.072ZM24.788 12.96C24.788 16.376 23.5653 19.2973 21.12 21.724C18.6933 24.132 15.772 25.336 12.356 25.336C8.92133 25.336 6 24.1413 3.592 21.752C1.20267 19.344 0.00800006 16.4133 0.00800006 12.96C0.00800006 9.52533 1.20267 6.59467 3.592 4.168C6 1.74133 8.92133 0.528 12.356 0.528C15.8093 0.528 18.74 1.74133 21.148 4.168C23.5747 6.59467 24.788 9.52533 24.788 12.96ZM19.636 20.24C21.6333 18.2427 22.632 15.816 22.632 12.96C22.632 10.104 21.6333 7.67733 19.636 5.68C17.6387 3.68267 15.212 2.684 12.356 2.684C9.5 2.684 7.07333 3.68267 5.076 5.68C3.09733 7.67733 2.108 10.104 2.108 12.96C2.108 15.7973 3.10667 18.2147 5.104 20.212C7.10133 22.2093 9.51867 23.208 12.356 23.208C15.212 23.208 17.6387 22.2187 19.636 20.24ZM13.42 4.98C11.1987 5.11067 9.32267 5.988 7.792 7.612C6.26133 9.236 5.496 11.1587 5.496 13.38C5.496 15.564 6.168 17.4027 7.512 18.896C8.856 20.3707 10.62 21.1733 12.804 21.304H12.356C10.06 21.304 8.1 20.492 6.476 18.868C4.852 17.2253 4.04 15.256 4.04 12.96C4.04 10.6453 4.84267 8.66667 6.448 7.024C8.072 5.38133 10.0413 4.56 12.356 4.56C12.3747 4.56 12.7293 4.7 13.42 4.98Z" fill="white"/>
</svg>
